<?xml version="1.0" encoding="utf-8"?>
<!-- Generator: Adobe Illustrator 26.0.2, SVG Export Plug-In . SVG Version: 6.00 Build 0)  -->
<svg version="1.1" id="Layer_1" xmlns="http://www.w3.org/2000/svg" xmlns:xlink="http://www.w3.org/1999/xlink" x="0px" y="0px"
	 viewBox="0 0 48 48" style="enable-background:new 0 0 48 48;" xml:space="preserve">
<g>
	<path d="M46,2v44H2V2H46 M48,0H0v48h48V0L48,0z"/>
</g>
<g>
	<path d="M23.1,10.8v2.8h-7.5v23.7h-3.4V13.6H4.8v-2.8H23.1z"/>
	<path d="M42.3,33.9c-0.6,1.1-1.5,2-2.7,2.6c-1.2,0.7-2.7,1-4.5,1c-1.8,0-3.3-0.3-4.7-1c-1.4-0.6-2.5-1.5-3.3-2.6
		c-0.8-1.1-1.3-2.4-1.4-3.8h3.6c0.1,0.8,0.3,1.5,0.8,2.2c0.4,0.7,1.1,1.3,1.9,1.8c0.8,0.5,1.8,0.7,2.9,0.7c1.5,0,2.7-0.4,3.5-1.2
		c0.8-0.8,1.2-1.8,1.2-3.1c0-1.1-0.3-2-0.8-2.6c-0.6-0.7-1.3-1.2-2.1-1.6c-0.8-0.4-2-0.8-3.4-1.3c-1.7-0.5-3-1.1-4-1.6
		c-1-0.5-1.9-1.2-2.6-2.2s-1.1-2.3-1.1-3.9c0-1.4,0.3-2.6,1-3.6c0.7-1.1,1.6-1.9,2.9-2.4c1.2-0.6,2.7-0.9,4.4-0.9
		c2.6,0,4.7,0.6,6.2,1.9c1.5,1.3,2.4,2.9,2.7,4.8H39c-0.2-1.1-0.7-2-1.6-2.8c-0.9-0.8-2.1-1.2-3.6-1.2c-1.4,0-2.5,0.4-3.3,1.1
		s-1.2,1.7-1.2,3c0,1,0.3,1.9,0.8,2.5c0.5,0.6,1.2,1.1,2,1.5c0.8,0.4,1.9,0.8,3.3,1.2c1.7,0.5,3.1,1.1,4.1,1.6s1.9,1.3,2.6,2.3
		c0.7,1,1.1,2.4,1.1,4C43.2,31.7,42.9,32.8,42.3,33.9z"/>
</g>
</svg>
